PathFileType	4	(X/Y/Z)	13_coords_data.trc
DataRate	CameraRate	NumFrames	NumMarkers	Units	OrigDataRate	OrigDataStartFrame	OrigNumFrames
30.0	30.0	4	21	m	30.0	1	61
Frame#	Time	THUMB_TIP	THUMB_IP	THUMB_MCP	THUMB_CMC	INDEX_TIP	INDEX_DIP	INDEX_PIP	INDEX_MCP	MIDDLE_TIP	MIDDLE_DIP	MIDDLE_PIP	MIDDLE_MCP	RING_TIP	RING_DIP	RING_PIP	RING_MCP	PINKY_TIP	PINKY_DIP	PINKY_PIP	PINKY_MCP	WRIST
X1	Y1	Z1	X2	Y2	Z2	X3	Y3	Z3	X4	Y4	Z4	X5	Y5	Z5	X6	Y6	Z6	X7	Y7	Z7	X8	Y8	Z8	X9	Y9	Z9	X10	Y10	Z10	X11	Y11	Z11	X12	Y12	Z12	X13	Y13	Z13	X14	Y14	Z14	X15	Y15	Z15	X16	Y16	Z16	X17	Y17	Z17	X18	Y18	Z18	X19	Y19	Z19	X20	Y20	Z20	X21	Y21	Z21
0	0.0	-0.024169099807739257	-0.05178200149536133	0.9622780151367187	-0.012337400436401367	-0.02947170066833496	0.9720599975585937	-0.011427900314331055	-0.009986740112304687	0.992468994140625	-0.012739700317382812	0.023209600448608397	1.0082999877929688	0.001965770006179809	0.015670299530029297	0.9784390258789063	0.019016599655151366	0.020213600158691405	0.9703049926757813	0.023478399276733397	0.021139999389648438	0.9473759765625	-0.013836199760437012	0.012992899894714355	0.9500399780273437	0.00408411979675293	0.032150299072265624	0.9856129760742187	0.015220499992370606	0.03833409881591797	0.9795079956054688	0.023532600402832032	0.04394160079956055	0.9547210083007812	-0.015437800407409668	0.03737779998779297	0.9445709838867188	-0.005524030208587646	0.045598400115966796	0.99239501953125	0.00847786045074463	0.05386029815673828	0.9875460205078125	0.017517900466918944	0.06283269882202148	0.9669970092773438	-0.017706499099731446	0.05888090133666992	0.9518889770507812	-0.01035700035095215	0.05946950149536133	0.9983759765625	0.0028471999168395994	0.06681220245361329	0.9945640258789062	0.008033760070800781	0.07539920043945313	0.9793590087890625	-0.01888949966430664	0.07552739715576172	0.9648060302734375	-0.0372156982421875	0.046139198303222655	1.0198900146484375
1	0.03333333333333333	-0.02334480094909668	-0.051733100891113284	0.9619500122070312	-0.011822099685668946	-0.02936210060119629	0.9720079956054688	-0.011118499755859376	-0.009873929977416993	0.9924660034179688	-0.012460599899291993	0.023396400451660155	1.0083499755859375	0.002264750003814697	0.01577340030670166	0.9781909790039063	0.019211099624633788	0.020406200408935548	0.9701740112304688	0.023765899658203124	0.021243499755859374	0.9473699951171874	-0.013388299942016601	0.013064499855041503	0.9497100219726563	0.004464439868927002	0.03239979934692383	0.98564599609375	0.015477399826049804	0.038483200073242185	0.9792420043945312	0.02381139945983887	0.044043598175048826	0.9545239868164063	-0.015132100105285644	0.03743180084228516	0.9443790283203125	-0.0052945599555969235	0.04583250045776367	0.9925430297851563	0.00871232032775879	0.05393579864501953	0.9873369750976563	0.017892000198364257	0.06293069839477539	0.9668170166015625	-0.017397699356079103	0.05890829849243164	0.9516799926757813	-0.010248700141906738	0.059549598693847655	0.9980360107421875	0.003128319978713989	0.06694229888916016	0.9942630004882812	0.008383660316467286	0.07548359680175781	0.9790399780273438	-0.018609100341796875	0.07557440185546875	0.96464697265625	-0.037098800659179684	0.04618820190429687	1.0196900024414062
2	0.06666666666666667	-0.022523500442504882	-0.051799400329589844	0.9613280029296875	-0.011638999938964844	-0.029332799911499022	0.9719530029296874	-0.01117959976196289	-0.009913689613342285	0.9925189819335938	-0.012519100189208984	0.023373199462890626	1.0082999877929688	0.002544699907302856	0.015821100234985352	0.9782449951171875	0.019452999114990235	0.02030080032348633	0.9699769897460937	0.024051599502563477	0.021138999938964845	0.9469769897460938	-0.013158900260925293	0.012953399658203125	0.9495759887695312	0.004715499877929688	0.03224819946289063	0.985218994140625	0.015709699630737303	0.038331901550292966	0.9791290283203125	0.02403529930114746	0.04389889907836914	0.9543930053710937	-0.014887900352478027	0.03739229965209961	0.9442009887695313	-0.004996079921722412	0.04571649932861328	0.9923209838867187	0.008984140396118164	0.05387289810180664	0.9872780151367188	0.018087799072265626	0.06278870010375977	0.9667080078125	-0.017192800521850585	0.058841400146484375	0.9515479736328125	-0.009845930099487305	0.05948910140991211	0.9981010131835938	0.0034542899131774904	0.06687779998779297	0.9940980224609375	0.00854514980316162	0.07542120361328125	0.9789660034179688	-0.01835969924926758	0.07550669860839844	0.96447900390625	-0.03716719818115234	0.046238800048828126	1.0195
3	0.1	-0.021996200561523436	-0.05185509872436524	0.9609290161132813	-0.01152050018310547	-0.029330400466918944	0.9719349975585938	-0.011168899536132813	-0.009905400276184083	0.99264697265625	-0.012440500259399414	0.023300600051879884	1.008219970703125	0.002528029918670654	0.01576930046081543	0.9782009887695312	0.01954789924621582	0.020263099670410158	0.9696950073242188	0.02409779930114746	0.021079399108886718	0.94672802734375	-0.013140899658203125	0.012897500038146973	0.9494739990234375	0.0046747798919677735	0.03224209976196289	0.9854320068359375	0.015808600425720215	0.03828879928588867	0.9788759765625	0.024073299407958985	0.04384600067138672	0.9540239868164062	-0.014892499923706054	0.03731750106811523	0.9440479736328125	-0.004859670162200928	0.04574660110473633	0.99227197265625	0.00901082992553711	0.053739200592041014	0.9869940185546875	0.018305299758911132	0.0627239990234375	0.9665640258789062	-0.017124000549316405	0.05881060028076172	0.951385986328125	-0.009780340194702149	0.05951789855957031	0.9976430053710937	0.003610549926757812	0.06679540252685547	0.9936060180664062	0.008733779907226562	0.07533930206298828	0.978530029296875	-0.018108699798583986	0.0754718017578125	0.9643380126953125	-0.03683440017700195	0.04624079895019531	1.0194000244140624
